<svg width="174" height="33" viewBox="0 0 174 33" fill="none" xmlns="http://www.w3.org/2000/svg">
<g clip-path="url(#clip0_207_219)">
<path d="M53.9 24.975C52.1167 24.9583 50.6083 24.6667 49.375 24.1C48.1417 23.5333 47.2083 22.625 46.575 21.375C45.9417 20.1083 45.625 18.4333 45.625 16.35C45.625 14.5333 45.9167 12.9667 46.5 11.65C47.1 10.3333 47.9667 9.31667 49.1 8.6C50.2333 7.86667 51.625 7.5 53.275 7.5C54.725 7.5 55.9917 7.70833 57.075 8.125C58.1583 8.54167 59.0083 9.14167 59.625 9.925C60.2583 10.6917 60.6083 11.6083 60.675 12.675C60.7417 13.6917 60.5667 14.575 60.15 15.325C59.75 16.075 59.15 16.7417 58.35 17.325C58.9333 17.425 59.4583 17.75 59.925 18.3C60.4083 18.85 60.65 19.5167 60.65 20.3C60.65 20.8333 60.5417 21.375 60.325 21.925C60.1083 22.475 59.7417 22.9833 59.225 23.45C58.725 23.9167 58.0333 24.2917 57.15 24.575C56.2833 24.8417 55.2 24.975 53.9 24.975ZM52.175 15.65C52.525 15.8 52.9417 15.875 53.425 15.875C53.9083 15.8583 54.3333 15.725 54.7 15.475C55.0833 15.225 55.275 14.8417 55.275 14.325C55.275 13.9417 55.1583 13.6333 54.925 13.4C54.7083 13.1667 54.4333 13.0083 54.1 12.925C53.7667 12.825 53.425 12.7833 53.075 12.8C52.725 12.8167 52.425 12.8917 52.175 13.025C51.8583 13.175 51.6417 13.4333 51.525 13.8C51.425 14.1667 51.425 14.5333 51.525 14.9C51.6417 15.25 51.8583 15.5 52.175 15.65ZM52.175 21.5C52.525 21.6333 52.9417 21.7 53.425 21.7C53.9083 21.6833 54.3333 21.5667 54.7 21.35C55.0833 21.1333 55.275 20.8 55.275 20.35C55.275 20.0167 55.1583 19.75 54.925 19.55C54.7083 19.3333 54.4333 19.1833 54.1 19.1C53.7667 19.0167 53.425 18.9917 53.075 19.025C52.725 19.0417 52.425 19.1 52.175 19.2C51.8583 19.3333 51.6417 19.5583 51.525 19.875C51.425 20.1917 51.425 20.5083 51.525 20.825C51.6417 21.1417 51.8583 21.3667 52.175 21.5ZM64.6086 25C64.0419 25 63.5753 24.8167 63.2086 24.45C62.8586 24.0667 62.5919 23.5583 62.4086 22.925C62.2253 22.2917 62.1003 21.5667 62.0336 20.75C61.9669 19.9333 61.9336 19.0917 61.9336 18.225C61.9336 17.6417 61.9419 17.05 61.9586 16.45C61.9919 15.8333 62.0753 15.2667 62.2086 14.75C62.3586 14.2333 62.6003 13.8167 62.9336 13.5C63.2836 13.1667 63.7753 13 64.4086 13C64.8586 13 65.2669 13.1083 65.6336 13.325C66.0003 13.525 66.2336 13.8333 66.3336 14.25C66.7169 13.9 67.2003 13.65 67.7836 13.5C68.3836 13.3333 69.0003 13.25 69.6336 13.25C70.1669 13.25 70.7086 13.3833 71.2586 13.65C71.8086 13.9 72.2753 14.25 72.6586 14.7C73.0419 15.15 73.2336 15.6583 73.2336 16.225C73.2336 16.7083 73.0503 17.1667 72.6836 17.6C72.3336 18.0333 71.8336 18.25 71.1836 18.25C70.9003 18.25 70.6669 18.2167 70.4836 18.15C70.3003 18.0667 70.1253 17.9917 69.9586 17.925C69.7919 17.8583 69.5919 17.825 69.3586 17.825C68.7419 17.825 68.1753 18.075 67.6586 18.575C67.1586 19.0583 66.9086 19.7167 66.9086 20.55C66.9086 20.9833 66.8919 21.4583 66.8586 21.975C66.8419 22.475 66.7669 22.9583 66.6336 23.425C66.5169 23.8917 66.3003 24.275 65.9836 24.575C65.6669 24.8583 65.2086 25 64.6086 25ZM78.2256 25C77.4089 25 76.6589 24.875 75.9756 24.625C75.3089 24.375 74.7756 24 74.3756 23.5C73.9756 22.9833 73.7756 22.3333 73.7756 21.55C73.7756 20.8833 73.9756 20.3167 74.3756 19.85C74.7756 19.3833 75.3089 19.025 75.9756 18.775C76.6589 18.525 77.4089 18.4 78.2256 18.4C78.7089 18.4 79.1506 18.4417 79.5506 18.525C79.9506 18.5917 80.2256 18.675 80.3756 18.775C80.3756 18.3917 80.2173 18.0583 79.9006 17.775C79.5839 17.475 79.0339 17.325 78.2506 17.325C77.8839 17.325 77.5923 17.3583 77.3756 17.425C77.1756 17.475 76.9923 17.5417 76.8256 17.625C76.6589 17.7083 76.4673 17.7833 76.2506 17.85C76.0506 17.9 75.7756 17.925 75.4256 17.925C74.9089 17.925 74.4923 17.7917 74.1756 17.525C73.8756 17.2417 73.7256 16.8167 73.7256 16.25C73.7256 15.7333 73.8673 15.2917 74.1506 14.925C74.4506 14.5417 74.8339 14.225 75.3006 13.975C75.7673 13.725 76.2673 13.5417 76.8006 13.425C77.3506 13.3083 77.8756 13.25 78.3756 13.25C79.8589 13.25 81.0673 13.525 82.0006 14.075C82.9339 14.6083 83.6256 15.3083 84.0756 16.175C84.5256 17.0417 84.7506 17.9833 84.7506 19C84.7506 19.5667 84.7006 20.0917 84.6006 20.575C84.5173 21.0583 84.4006 21.4333 84.2506 21.7C84.4839 21.9 84.6589 22.1333 84.7756 22.4C84.9089 22.6667 84.9756 22.9417 84.9756 23.225C84.9756 23.6917 84.8173 24.1083 84.5006 24.475C84.2006 24.825 83.7673 25 83.2006 25C82.7673 25 82.4256 24.9333 82.1756 24.8C81.9256 24.6667 81.6756 24.4917 81.4256 24.275C81.0256 24.5083 80.5839 24.6917 80.1006 24.825C79.6173 24.9417 78.9923 25 78.2256 25ZM78.7256 22.475C79.1089 22.475 79.3923 22.4 79.5756 22.25C79.7756 22.0833 79.8756 21.9 79.8756 21.7C79.8756 21.5 79.7756 21.325 79.5756 21.175C79.3923 21.0083 79.1089 20.925 78.7256 20.925C78.3589 20.925 78.0756 21.0083 77.8756 21.175C77.6756 21.325 77.5756 21.5 77.5756 21.7C77.5756 21.9 77.6756 22.0833 77.8756 22.25C78.0756 22.4 78.3589 22.475 78.7256 22.475ZM90.5373 25C89.0706 25 87.904 24.7583 87.0373 24.275C86.1706 23.7917 85.7373 23.1667 85.7373 22.4C85.7373 21.8667 85.9123 21.475 86.2623 21.225C86.629 20.9583 87.0623 20.825 87.5623 20.825C87.9623 20.825 88.254 20.8917 88.4373 21.025C88.6373 21.1583 88.8123 21.2917 88.9623 21.425C89.1123 21.5583 89.2956 21.625 89.5123 21.625C89.8623 21.625 90.0373 21.5 90.0373 21.25C90.0373 20.9167 89.8373 20.675 89.4373 20.525C89.054 20.375 88.5706 20.1667 87.9873 19.9C87.1873 19.5167 86.6123 19.075 86.2623 18.575C85.9123 18.0583 85.7373 17.5333 85.7373 17C85.7373 16.3667 85.9623 15.7667 86.4123 15.2C86.8623 14.6333 87.4956 14.1667 88.3123 13.8C89.1456 13.4333 90.1373 13.25 91.2873 13.25C92.254 13.25 93.1206 13.3833 93.8873 13.65C94.654 13.9167 95.2623 14.2833 95.7123 14.75C96.1623 15.2 96.3873 15.7 96.3873 16.25C96.3873 16.7667 96.2206 17.1583 95.8873 17.425C95.554 17.6917 95.1206 17.825 94.5873 17.825C94.2873 17.825 94.0456 17.7833 93.8623 17.7C93.6956 17.6 93.5373 17.5083 93.3873 17.425C93.254 17.3417 93.0623 17.3 92.8123 17.3C92.679 17.3 92.5623 17.35 92.4623 17.45C92.3623 17.5333 92.3123 17.6417 92.3123 17.775C92.3123 17.875 92.354 17.975 92.4373 18.075C92.5206 18.175 92.6623 18.2583 92.8623 18.325C93.379 18.4917 93.879 18.7083 94.3623 18.975C94.8623 19.225 95.2706 19.5583 95.5873 19.975C95.9206 20.375 96.0873 20.8917 96.0873 21.525C96.0873 22.6083 95.579 23.4583 94.5623 24.075C93.5456 24.6917 92.204 25 90.5373 25ZM99.7951 12.875C98.9785 12.875 98.2868 12.5833 97.7201 12C97.1535 11.4 96.8701 10.675 96.8701 9.825C96.8701 9.25833 96.9951 8.75 97.2451 8.3C97.5118 7.85 97.8618 7.49167 98.2951 7.225C98.7451 6.94167 99.2451 6.8 99.7951 6.8C100.328 6.8 100.812 6.94167 101.245 7.225C101.695 7.49167 102.053 7.85 102.32 8.3C102.587 8.75 102.72 9.25833 102.72 9.825C102.72 10.3917 102.587 10.9083 102.32 11.375C102.053 11.825 101.695 12.1917 101.245 12.475C100.812 12.7417 100.328 12.875 99.7951 12.875ZM99.7951 25C99.1285 25 98.6285 24.8083 98.2951 24.425C97.9785 24.0417 97.7618 23.4583 97.6451 22.675C97.5451 21.875 97.4868 20.85 97.4701 19.6C97.4701 18.35 97.5201 17.325 97.6201 16.525C97.7368 15.725 97.9618 15.1417 98.2951 14.775C98.6285 14.3917 99.1285 14.2 99.7951 14.2C100.462 14.2 100.953 14.3917 101.27 14.775C101.603 15.1417 101.828 15.725 101.945 16.525C102.062 17.325 102.12 18.35 102.12 19.6C102.137 20.85 102.087 21.875 101.97 22.675C101.853 23.4583 101.628 24.0417 101.295 24.425C100.962 24.8083 100.462 25 99.7951 25ZM106.9 24.95C106.05 24.95 105.416 24.6333 105 24C104.583 23.35 104.308 22.3833 104.175 21.1C104.041 19.8 103.975 18.175 103.975 16.225C103.975 14.9417 103.991 13.7667 104.025 12.7C104.075 11.6333 104.191 10.7167 104.375 9.95C104.558 9.16667 104.85 8.56667 105.25 8.15C105.65 7.71667 106.208 7.5 106.925 7.5C107.641 7.5 108.2 7.71667 108.6 8.15C109 8.56667 109.291 9.16667 109.475 9.95C109.658 10.7167 109.766 11.6333 109.8 12.7C109.85 13.7667 109.875 14.9417 109.875 16.225C109.875 19.1583 109.666 21.35 109.25 22.8C108.85 24.2333 108.066 24.95 106.9 24.95ZM127.373 24.95C126.54 24.95 125.906 24.675 125.473 24.125C125.04 23.575 124.74 22.7583 124.573 21.675C124.423 20.575 124.348 19.2167 124.348 17.6C124.348 17.0167 124.356 16.4667 124.373 15.95C124.39 15.4333 124.406 14.95 124.423 14.5C122.423 14.4 120.956 14.1167 120.023 13.65C119.09 13.1833 118.623 12.375 118.623 11.225C118.623 9.79167 119.348 8.825 120.798 8.325C122.265 7.825 124.465 7.575 127.398 7.575C130.348 7.575 132.565 7.825 134.048 8.325C135.548 8.825 136.298 9.79167 136.298 11.225C136.298 12.3583 135.823 13.1667 134.873 13.65C133.94 14.1167 132.481 14.4 130.498 14.5C130.531 14.95 130.556 15.4333 130.573 15.95C130.59 16.4667 130.598 17.0167 130.598 17.6C130.598 20.15 130.373 22.0167 129.923 23.2C129.473 24.3667 128.623 24.95 127.373 24.95ZM140.034 25.025C138.801 25.0417 137.718 24.7917 136.784 24.275C135.868 23.7417 135.143 23.025 134.609 22.125C134.093 21.2083 133.818 20.2 133.784 19.1C133.768 17.9667 134.026 16.9667 134.559 16.1C135.093 15.2167 135.834 14.5167 136.784 14C137.734 13.4833 138.818 13.225 140.034 13.225C141.234 13.2083 142.293 13.4583 143.209 13.975C144.143 14.4917 144.884 15.1917 145.434 16.075C145.984 16.9583 146.276 17.9667 146.309 19.1C146.326 20.1833 146.068 21.175 145.534 22.075C145.001 22.9583 144.259 23.6667 143.309 24.2C142.359 24.7167 141.268 24.9917 140.034 25.025ZM140.109 21.375C140.559 21.375 140.951 21.2 141.284 20.85C141.618 20.5 141.784 20.0917 141.784 19.625C141.784 19.1583 141.618 18.7583 141.284 18.425C140.951 18.075 140.559 17.9 140.109 17.9C139.659 17.9 139.268 18.075 138.934 18.425C138.601 18.7583 138.434 19.1583 138.434 19.625C138.434 20.0917 138.601 20.5 138.934 20.85C139.268 21.2 139.659 21.375 140.109 21.375ZM153.115 25C151.882 25 150.807 24.7 149.89 24.1C148.99 23.4833 148.29 22.6333 147.79 21.55C147.307 20.45 147.065 19.1833 147.065 17.75C147.065 16.35 147.282 15.25 147.715 14.45C148.165 13.65 148.799 13.25 149.615 13.25C150.199 13.25 150.64 13.3583 150.94 13.575C151.257 13.7917 151.465 14.0667 151.565 14.4C151.682 14.7167 151.74 15.0583 151.74 15.425C151.74 15.8917 151.707 16.3667 151.64 16.85C151.59 17.3333 151.565 17.85 151.565 18.4C151.565 19.1833 151.724 19.7583 152.04 20.125C152.374 20.475 152.732 20.65 153.115 20.65C153.532 20.65 153.89 20.475 154.19 20.125C154.507 19.7583 154.665 19.1833 154.665 18.4C154.665 17.85 154.64 17.3583 154.59 16.925C154.54 16.4917 154.515 16 154.515 15.45C154.515 14.8667 154.657 14.3583 154.94 13.925C155.224 13.475 155.79 13.25 156.64 13.25C157.457 13.25 158.082 13.65 158.515 14.45C158.949 15.25 159.165 16.35 159.165 17.75C159.165 19.1833 158.94 20.45 158.49 21.55C158.04 22.6333 157.365 23.4833 156.465 24.1C155.582 24.7 154.465 25 153.115 25ZM162.68 25C162.113 25 161.647 24.8167 161.28 24.45C160.93 24.0667 160.663 23.5583 160.48 22.925C160.297 22.2917 160.172 21.5667 160.105 20.75C160.038 19.9333 160.005 19.0917 160.005 18.225C160.005 17.6417 160.013 17.05 160.03 16.45C160.063 15.8333 160.147 15.2667 160.28 14.75C160.43 14.2333 160.672 13.8167 161.005 13.5C161.355 13.1667 161.847 13 162.48 13C162.93 13 163.338 13.1083 163.705 13.325C164.072 13.525 164.305 13.8333 164.405 14.25C164.788 13.9 165.272 13.65 165.855 13.5C166.455 13.3333 167.072 13.25 167.705 13.25C168.238 13.25 168.78 13.3833 169.33 13.65C169.88 13.9 170.347 14.25 170.73 14.7C171.113 15.15 171.305 15.6583 171.305 16.225C171.305 16.7083 171.122 17.1667 170.755 17.6C170.405 18.0333 169.905 18.25 169.255 18.25C168.972 18.25 168.738 18.2167 168.555 18.15C168.372 18.0667 168.197 17.9917 168.03 17.925C167.863 17.8583 167.663 17.825 167.43 17.825C166.813 17.825 166.247 18.075 165.73 18.575C165.23 19.0583 164.98 19.7167 164.98 20.55C164.98 20.9833 164.963 21.4583 164.93 21.975C164.913 22.475 164.838 22.9583 164.705 23.425C164.588 23.8917 164.372 24.275 164.055 24.575C163.738 24.8583 163.28 25 162.68 25Z" fill="white"/>
<path fill-rule="evenodd" clip-rule="evenodd" d="M22.4996 0.916656C30.554 0.916656 37.0829 7.44561 37.0829 15.5C37.0829 21.7708 33.125 27.1171 27.5717 29.1762C27.4778 29.2278 27.3785 29.2689 27.2756 29.2987L27.1371 29.3308C25.6422 29.8309 24.076 30.0851 22.4996 30.0833C14.4452 30.0833 7.91626 23.5544 7.91626 15.5C7.91626 7.44561 14.4452 0.916656 22.4996 0.916656ZM26.7433 4.62957L26.4867 5.91436C26.3212 6.74127 25.9204 7.50274 25.3323 8.10712C24.7442 8.71151 23.994 9.13306 23.1719 9.32103L22.5871 9.4552C22.2244 9.5379 21.9069 9.75611 21.6998 10.0652C21.4927 10.3742 21.4115 10.7508 21.4729 11.1177L21.7281 12.646C21.8094 13.1359 21.7643 13.6385 21.5971 14.106C21.4298 14.5736 21.1459 14.9907 20.7723 15.3179C20.3987 15.645 19.9478 15.8714 19.4622 15.9754C18.9767 16.0795 18.4726 16.0579 17.9977 15.9127L16.1165 15.3381C15.2204 15.0642 14.4359 14.5098 13.8786 13.7566C13.3212 13.0034 13.0204 12.0912 13.0204 11.1542V8.69686C11.6396 10.6193 10.8762 12.9163 10.8315 15.2828C10.7869 17.6493 11.4631 19.9735 12.7704 21.9466C14.0778 23.9198 15.9543 25.4487 18.151 26.3302C20.3477 27.2118 22.7605 27.4043 25.0692 26.8823L24.2219 23.9189C24.1535 23.6808 24.0255 23.4639 23.85 23.2889L22.0446 21.4821C21.827 21.2646 21.6577 21.0037 21.5478 20.7163C21.4379 20.429 21.3898 20.1217 21.4068 19.8145C21.4237 19.5073 21.5052 19.2071 21.646 18.9336C21.7869 18.6601 21.9838 18.4193 22.224 18.2271L24.5063 16.4027C24.9414 16.0546 25.4671 15.8385 26.0212 15.7798C26.5753 15.7211 27.1346 15.8224 27.6329 16.0717L29.7767 17.1435C30.4208 17.4656 30.9754 17.9418 31.3914 18.5297C31.8073 19.1176 32.0717 19.7991 32.1611 20.5137L32.3215 21.7985C33.2534 20.3447 33.8511 18.7022 34.0714 16.9894C34.2917 15.2766 34.1293 13.5363 33.5957 11.8939C33.062 10.2515 32.1706 8.74805 30.9857 7.49185C29.8007 6.23565 28.3518 5.25806 26.7433 4.62957ZM26.3277 18.6806L24.6827 19.996L25.9135 21.2254C26.3629 21.6753 26.7088 22.2178 26.9271 22.815L27.0263 23.1183L27.8181 25.8862C28.3286 25.6237 28.8185 25.3248 29.2823 24.9937L29.7388 24.6496L29.2677 20.8754C29.2417 20.6675 29.1711 20.4677 29.0609 20.2895C28.9507 20.1114 28.8034 19.959 28.629 19.8429L28.4715 19.7525L26.3277 18.6806ZM22.4996 3.83332C20.1549 3.82966 17.864 4.53583 15.9283 5.85895C15.9342 5.91145 15.9371 5.96541 15.9371 6.02082V11.1542C15.9368 11.4665 16.0368 11.7707 16.2225 12.022C16.4081 12.2732 16.6695 12.4583 16.9681 12.5498L18.8508 13.1244L18.5956 11.596C18.4122 10.4959 18.6559 9.36717 19.2769 8.44068C19.8979 7.51419 20.8493 6.85986 21.9367 6.61145L22.5215 6.47874C22.7958 6.41602 23.0462 6.27525 23.2423 6.07342C23.4385 5.87158 23.572 5.61729 23.6269 5.34124L23.9127 3.91791C23.4438 3.86142 22.9719 3.83318 22.4996 3.83332Z" fill="white"/>
</g>
<defs>
<clipPath id="clip0_207_219">
<rect width="174" height="33" fill="white"/>
</clipPath>
</defs>
</svg>
