<svg width="162" height="24" viewBox="0 0 162 24" fill="none" xmlns="http://www.w3.org/2000/svg">
<g clip-path="url(#clip0_207_219)">
<path d="M51.12 18.98C49.6933 18.9667 48.4867 18.7333 47.5 18.28C46.5133 17.8267 45.7667 17.1 45.26 16.1C44.7533 15.0867 44.5 13.7467 44.5 12.08C44.5 10.6267 44.7333 9.37333 45.2 8.32C45.68 7.26667 46.3733 6.45333 47.28 5.88C48.1867 5.29333 49.3 5 50.62 5C51.78 5 52.7933 5.16667 53.66 5.5C54.5267 5.83333 55.2067 6.31333 55.7 6.94C56.2067 7.55333 56.4867 8.28667 56.54 9.14C56.5933 9.95333 56.4533 10.66 56.12 11.26C55.8 11.86 55.32 12.3933 54.68 12.86C55.1467 12.94 55.5667 13.2 55.94 13.64C56.3267 14.08 56.52 14.6133 56.52 15.24C56.52 15.6667 56.4333 16.1 56.26 16.54C56.0867 16.98 55.7933 17.3867 55.38 17.76C54.98 18.1333 54.4267 18.4333 53.72 18.66C53.0267 18.8733 52.16 18.98 51.12 18.98ZM49.74 11.52C50.02 11.64 50.3533 11.7 50.74 11.7C51.1267 11.6867 51.4667 11.58 51.76 11.38C52.0667 11.18 52.22 10.8733 52.22 10.46C52.22 10.1533 52.1267 9.90667 51.94 9.72C51.7667 9.53333 51.5467 9.40667 51.28 9.34C51.0133 9.26 50.74 9.22667 50.46 9.24C50.18 9.25333 49.94 9.31333 49.74 9.42C49.4867 9.54 49.3133 9.74667 49.22 10.04C49.14 10.3333 49.14 10.6267 49.22 10.92C49.3133 11.2 49.4867 11.4 49.74 11.52ZM49.74 16.2C50.02 16.3067 50.3533 16.36 50.74 16.36C51.1267 16.3467 51.4667 16.2533 51.76 16.08C52.0667 15.9067 52.22 15.64 52.22 15.28C52.22 15.0133 52.1267 14.8 51.94 14.64C51.7667 14.4667 51.5467 14.3467 51.28 14.28C51.0133 14.2133 50.74 14.1933 50.46 14.22C50.18 14.2333 49.94 14.28 49.74 14.36C49.4867 14.4667 49.3133 14.6467 49.22 14.9C49.14 15.1533 49.14 15.4067 49.22 15.66C49.3133 15.9133 49.4867 16.0933 49.74 16.2ZM59.6869 19C59.2335 19 58.8602 18.8533 58.5669 18.56C58.2869 18.2533 58.0735 17.8467 57.9269 17.34C57.7802 16.8333 57.6802 16.2533 57.6269 15.6C57.5735 14.9467 57.5469 14.2733 57.5469 13.58C57.5469 13.1133 57.5535 12.64 57.5669 12.16C57.5935 11.6667 57.6602 11.2133 57.7669 10.8C57.8869 10.3867 58.0802 10.0533 58.3469 9.8C58.6269 9.53333 59.0202 9.4 59.5269 9.4C59.8869 9.4 60.2135 9.48667 60.5069 9.66C60.8002 9.82 60.9869 10.0667 61.0669 10.4C61.3735 10.12 61.7602 9.92 62.2269 9.8C62.7069 9.66667 63.2002 9.6 63.7069 9.6C64.1335 9.6 64.5669 9.70667 65.0069 9.92C65.4469 10.12 65.8202 10.4 66.1269 10.76C66.4335 11.12 66.5869 11.5267 66.5869 11.98C66.5869 12.3667 66.4402 12.7333 66.1469 13.08C65.8669 13.4267 65.4669 13.6 64.9469 13.6C64.7202 13.6 64.5335 13.5733 64.3869 13.52C64.2402 13.4533 64.1002 13.3933 63.9669 13.34C63.8335 13.2867 63.6735 13.26 63.4869 13.26C62.9935 13.26 62.5402 13.46 62.1269 13.86C61.7269 14.2467 61.5269 14.7733 61.5269 15.44C61.5269 15.7867 61.5135 16.1667 61.4869 16.58C61.4735 16.98 61.4135 17.3667 61.3069 17.74C61.2135 18.1133 61.0402 18.42 60.7869 18.66C60.5335 18.8867 60.1669 19 59.6869 19ZM70.5805 19C69.9271 19 69.3271 18.9 68.7805 18.7C68.2471 18.5 67.8205 18.2 67.5005 17.8C67.1805 17.3867 67.0205 16.8667 67.0205 16.24C67.0205 15.7067 67.1805 15.2533 67.5005 14.88C67.8205 14.5067 68.2471 14.22 68.7805 14.02C69.3271 13.82 69.9271 13.72 70.5805 13.72C70.9671 13.72 71.3205 13.7533 71.6405 13.82C71.9605 13.8733 72.1805 13.94 72.3005 14.02C72.3005 13.7133 72.1738 13.4467 71.9205 13.22C71.6671 12.98 71.2271 12.86 70.6005 12.86C70.3071 12.86 70.0738 12.8867 69.9005 12.94C69.7405 12.98 69.5938 13.0333 69.4605 13.1C69.3271 13.1667 69.1738 13.2267 69.0005 13.28C68.8405 13.32 68.6205 13.34 68.3405 13.34C67.9271 13.34 67.5938 13.2333 67.3405 13.02C67.1005 12.7933 66.9805 12.4533 66.9805 12C66.9805 11.5867 67.0938 11.2333 67.3205 10.94C67.5605 10.6333 67.8671 10.38 68.2405 10.18C68.6138 9.98 69.0138 9.83333 69.4405 9.74C69.8805 9.64667 70.3005 9.6 70.7005 9.6C71.8871 9.6 72.8538 9.82 73.6005 10.26C74.3471 10.6867 74.9005 11.2467 75.2605 11.94C75.6205 12.6333 75.8005 13.3867 75.8005 14.2C75.8005 14.6533 75.7605 15.0733 75.6805 15.46C75.6138 15.8467 75.5205 16.1467 75.4005 16.36C75.5871 16.52 75.7271 16.7067 75.8205 16.92C75.9271 17.1333 75.9805 17.3533 75.9805 17.58C75.9805 17.9533 75.8538 18.2867 75.6005 18.58C75.3605 18.86 75.0138 19 74.5605 19C74.2138 19 73.9405 18.9467 73.7405 18.84C73.5405 18.7333 73.3405 18.5933 73.1405 18.42C72.8205 18.6067 72.4671 18.7533 72.0805 18.86C71.6938 18.9533 71.1938 19 70.5805 19ZM70.9805 16.98C71.2871 16.98 71.5138 16.92 71.6605 16.8C71.8205 16.6667 71.9005 16.52 71.9005 16.36C71.9005 16.2 71.8205 16.06 71.6605 15.94C71.5138 15.8067 71.2871 15.74 70.9805 15.74C70.6871 15.74 70.4605 15.8067 70.3005 15.94C70.1405 16.06 70.0605 16.2 70.0605 16.36C70.0605 16.52 70.1405 16.6667 70.3005 16.8C70.4605 16.92 70.6871 16.98 70.9805 16.98ZM80.4298 19C79.2565 19 78.3232 18.8067 77.6298 18.42C76.9365 18.0333 76.5898 17.5333 76.5898 16.92C76.5898 16.4933 76.7298 16.18 77.0098 15.98C77.3032 15.7667 77.6498 15.66 78.0498 15.66C78.3698 15.66 78.6032 15.7133 78.7498 15.82C78.9098 15.9267 79.0498 16.0333 79.1698 16.14C79.2898 16.2467 79.4365 16.3 79.6098 16.3C79.8898 16.3 80.0298 16.2 80.0298 16C80.0298 15.7333 79.8698 15.54 79.5498 15.42C79.2432 15.3 78.8565 15.1333 78.3898 14.92C77.7498 14.6133 77.2898 14.26 77.0098 13.86C76.7298 13.4467 76.5898 13.0267 76.5898 12.6C76.5898 12.0933 76.7698 11.6133 77.1298 11.16C77.4898 10.7067 77.9965 10.3333 78.6498 10.04C79.3165 9.74667 80.1098 9.6 81.0298 9.6C81.8032 9.6 82.4965 9.70667 83.1098 9.92C83.7232 10.1333 84.2098 10.4267 84.5698 10.8C84.9298 11.16 85.1098 11.56 85.1098 12C85.1098 12.4133 84.9765 12.7267 84.7098 12.94C84.4432 13.1533 84.0965 13.26 83.6698 13.26C83.4298 13.26 83.2365 13.2267 83.0898 13.16C82.9565 13.08 82.8298 13.0067 82.7098 12.94C82.6032 12.8733 82.4498 12.84 82.2498 12.84C82.1432 12.84 82.0498 12.88 81.9698 12.96C81.8898 13.0267 81.8498 13.1133 81.8498 13.22C81.8498 13.3 81.8832 13.38 81.9498 13.46C82.0165 13.54 82.1298 13.6067 82.2898 13.66C82.7032 13.7933 83.1032 13.9667 83.4898 14.18C83.8898 14.38 84.2165 14.6467 84.4698 14.98C84.7365 15.3 84.8698 15.7133 84.8698 16.22C84.8698 17.0867 84.4632 17.7667 83.6498 18.26C82.8365 18.7533 81.7632 19 80.4298 19ZM87.8361 9.3C87.1828 9.3 86.6294 9.06667 86.1761 8.6C85.7228 8.12 85.4961 7.54 85.4961 6.86C85.4961 6.40667 85.5961 6 85.7961 5.64C86.0094 5.28 86.2894 4.99333 86.6361 4.78C86.9961 4.55333 87.3961 4.44 87.8361 4.44C88.2628 4.44 88.6494 4.55333 88.9961 4.78C89.3561 4.99333 89.6428 5.28 89.8561 5.64C90.0694 6 90.1761 6.40667 90.1761 6.86C90.1761 7.31333 90.0694 7.72667 89.8561 8.1C89.6428 8.46 89.3561 8.75333 88.9961 8.98C88.6494 9.19333 88.2628 9.3 87.8361 9.3ZM87.8361 19C87.3028 19 86.9028 18.8467 86.6361 18.54C86.3828 18.2333 86.2094 17.7667 86.1161 17.14C86.0361 16.5 85.9894 15.68 85.9761 14.68C85.9761 13.68 86.0161 12.86 86.0961 12.22C86.1894 11.58 86.3694 11.1133 86.6361 10.82C86.9028 10.5133 87.3028 10.36 87.8361 10.36C88.3694 10.36 88.7628 10.5133 89.0161 10.82C89.2828 11.1133 89.4628 11.58 89.5561 12.22C89.6494 12.86 89.6961 13.68 89.6961 14.68C89.7094 15.68 89.6694 16.5 89.5761 17.14C89.4828 17.7667 89.3028 18.2333 89.0361 18.54C88.7694 18.8467 88.3694 19 87.8361 19ZM93.5197 18.96C92.8397 18.96 92.333 18.7067 91.9997 18.2C91.6664 17.68 91.4464 16.9067 91.3397 15.88C91.233 14.84 91.1797 13.54 91.1797 11.98C91.1797 10.9533 91.193 10.0133 91.2197 9.16C91.2597 8.30667 91.353 7.57333 91.4997 6.96C91.6464 6.33333 91.8797 5.85333 92.1997 5.52C92.5197 5.17333 92.9664 5 93.5397 5C94.113 5 94.5597 5.17333 94.8797 5.52C95.1997 5.85333 95.433 6.33333 95.5797 6.96C95.7264 7.57333 95.813 8.30667 95.8397 9.16C95.8797 10.0133 95.8997 10.9533 95.8997 11.98C95.8997 14.3267 95.733 16.08 95.3997 17.24C95.0797 18.3867 94.453 18.96 93.5197 18.96ZM109.898 18.96C109.232 18.96 108.725 18.74 108.378 18.3C108.032 17.86 107.792 17.2067 107.658 16.34C107.538 15.46 107.478 14.3733 107.478 13.08C107.478 12.6133 107.485 12.1733 107.498 11.76C107.512 11.3467 107.525 10.96 107.538 10.6C105.938 10.52 104.765 10.2933 104.018 9.92C103.272 9.54667 102.898 8.9 102.898 7.98C102.898 6.83333 103.478 6.06 104.638 5.66C105.812 5.26 107.572 5.06 109.918 5.06C112.278 5.06 114.052 5.26 115.238 5.66C116.438 6.06 117.038 6.83333 117.038 7.98C117.038 8.88667 116.658 9.53333 115.898 9.92C115.152 10.2933 113.985 10.52 112.398 10.6C112.425 10.96 112.445 11.3467 112.458 11.76C112.472 12.1733 112.478 12.6133 112.478 13.08C112.478 15.12 112.298 16.6133 111.938 17.56C111.578 18.4933 110.898 18.96 109.898 18.96ZM120.027 19.02C119.041 19.0333 118.174 18.8333 117.427 18.42C116.694 17.9933 116.114 17.42 115.687 16.7C115.274 15.9667 115.054 15.16 115.027 14.28C115.014 13.3733 115.221 12.5733 115.647 11.88C116.074 11.1733 116.667 10.6133 117.427 10.2C118.187 9.78667 119.054 9.58 120.027 9.58C120.987 9.56667 121.834 9.76667 122.567 10.18C123.314 10.5933 123.907 11.1533 124.347 11.86C124.787 12.5667 125.021 13.3733 125.047 14.28C125.061 15.1467 124.854 15.94 124.427 16.66C124.001 17.3667 123.407 17.9333 122.647 18.36C121.887 18.7733 121.014 18.9933 120.027 19.02ZM120.087 16.1C120.447 16.1 120.761 15.96 121.027 15.68C121.294 15.4 121.427 15.0733 121.427 14.7C121.427 14.3267 121.294 14.0067 121.027 13.74C120.761 13.46 120.447 13.32 120.087 13.32C119.727 13.32 119.414 13.46 119.147 13.74C118.881 14.0067 118.747 14.3267 118.747 14.7C118.747 15.0733 118.881 15.4 119.147 15.68C119.414 15.96 119.727 16.1 120.087 16.1ZM130.492 19C129.506 19 128.646 18.76 127.912 18.28C127.192 17.7867 126.632 17.1067 126.232 16.24C125.846 15.36 125.652 14.3467 125.652 13.2C125.652 12.08 125.826 11.2 126.172 10.56C126.532 9.92 127.039 9.6 127.692 9.6C128.159 9.6 128.512 9.68667 128.752 9.86C129.006 10.0333 129.172 10.2533 129.252 10.52C129.346 10.7733 129.392 11.0467 129.392 11.34C129.392 11.7133 129.366 12.0933 129.312 12.48C129.272 12.8667 129.252 13.28 129.252 13.72C129.252 14.3467 129.379 14.8067 129.632 15.1C129.899 15.38 130.186 15.52 130.492 15.52C130.826 15.52 131.112 15.38 131.352 15.1C131.606 14.8067 131.732 14.3467 131.732 13.72C131.732 13.28 131.712 12.8867 131.672 12.54C131.632 12.1933 131.612 11.8 131.612 11.36C131.612 10.8933 131.726 10.4867 131.952 10.14C132.179 9.78 132.632 9.6 133.312 9.6C133.966 9.6 134.466 9.92 134.812 10.56C135.159 11.2 135.332 12.08 135.332 13.2C135.332 14.3467 135.152 15.36 134.792 16.24C134.432 17.1067 133.892 17.7867 133.172 18.28C132.466 18.76 131.572 19 130.492 19ZM138.144 19C137.691 19 137.317 18.8533 137.024 18.56C136.744 18.2533 136.531 17.8467 136.384 17.34C136.237 16.8333 136.137 16.2533 136.084 15.6C136.031 14.9467 136.004 14.2733 136.004 13.58C136.004 13.1133 136.011 12.64 136.024 12.16C136.051 11.6667 136.117 11.2133 136.224 10.8C136.344 10.3867 136.537 10.0533 136.804 9.8C137.084 9.53333 137.477 9.4 137.984 9.4C138.344 9.4 138.671 9.48667 138.964 9.66C139.257 9.82 139.444 10.0667 139.524 10.4C139.831 10.12 140.217 9.92 140.684 9.8C141.164 9.66667 141.657 9.6 142.164 9.6C142.591 9.6 143.024 9.70667 143.464 9.92C143.904 10.12 144.277 10.4 144.584 10.76C144.891 11.12 145.044 11.5267 145.044 11.98C145.044 12.3667 144.897 12.7333 144.604 13.08C144.324 13.4267 143.924 13.6 143.404 13.6C143.177 13.6 142.991 13.5733 142.844 13.52C142.697 13.4533 142.557 13.3933 142.424 13.34C142.291 13.2867 142.131 13.26 141.944 13.26C141.451 13.26 140.997 13.46 140.584 13.86C140.184 14.2467 139.984 14.7733 139.984 15.44C139.984 15.7867 139.971 16.1667 139.944 16.58C139.931 16.98 139.871 17.3667 139.764 17.74C139.671 18.1133 139.497 18.42 139.244 18.66C138.991 18.8867 138.624 19 138.144 19Z" fill="white"/>
<path fill-rule="evenodd" clip-rule="evenodd" d="M26.9997 0.333344C33.4432 0.333344 38.6663 5.55651 38.6663 12C38.6663 17.0167 35.5 21.2937 31.0573 22.941C30.9822 22.9823 30.9028 23.0151 30.8205 23.039L30.7097 23.0647C29.5137 23.4648 28.2608 23.6681 26.9997 23.6667C20.5562 23.6667 15.333 18.4435 15.333 12C15.333 5.55651 20.5562 0.333344 26.9997 0.333344ZM30.3947 3.30368L30.1893 4.33151C30.057 4.99303 29.7363 5.60221 29.2658 6.08572C28.7953 6.56923 28.1952 6.90647 27.5375 7.05684L27.0697 7.16418C26.7795 7.23034 26.5256 7.4049 26.3599 7.65215C26.1942 7.8994 26.1292 8.20062 26.1783 8.49418L26.3825 9.71684C26.4476 10.1088 26.4115 10.5108 26.2776 10.8848C26.1438 11.2589 25.9167 11.5926 25.6179 11.8543C25.319 12.116 24.9582 12.2971 24.5698 12.3804C24.1813 12.4637 23.7781 12.4464 23.3982 12.3302L21.8932 11.8705C21.1763 11.6514 20.5488 11.2079 20.1029 10.6053C19.657 10.0027 19.4163 9.27294 19.4163 8.52334V6.55751C18.3117 8.09547 17.701 9.93305 17.6652 11.8263C17.6295 13.7195 18.1705 15.5788 19.2164 17.1573C20.2622 18.7359 21.7635 19.9589 23.5208 20.6642C25.2781 21.3694 27.2084 21.5235 29.0553 21.1058L28.3775 18.7352C28.3228 18.5446 28.2204 18.3712 28.08 18.2312L26.6357 16.7857C26.4616 16.6117 26.3262 16.4029 26.2382 16.1731C26.1503 15.9432 26.1119 15.6973 26.1254 15.4516C26.139 15.2059 26.2042 14.9657 26.3168 14.7469C26.4295 14.5281 26.587 14.3355 26.7792 14.1817L28.605 12.7222C28.9531 12.4437 29.3737 12.2708 29.8169 12.2239C30.2602 12.1769 30.7077 12.2579 31.1063 12.4573L32.8213 13.3148C33.3366 13.5725 33.7804 13.9534 34.1131 14.4238C34.4459 14.8941 34.6574 15.4393 34.7288 16.011L34.8572 17.0388C35.6027 15.8758 36.0809 14.5617 36.2571 13.1915C36.4334 11.8213 36.3034 10.4291 35.8765 9.11515C35.4496 7.80125 34.7365 6.59845 33.7886 5.5935C32.8406 4.58854 31.6814 3.80647 30.3947 3.30368ZM30.0622 14.5445L28.7462 15.5968L29.7308 16.5803C30.0903 16.9403 30.367 17.3742 30.5417 17.852L30.621 18.0947L31.2545 20.309C31.6628 20.099 32.0548 19.8598 32.4258 19.595L32.791 19.3197L32.4142 16.3003C32.3933 16.134 32.3369 15.9742 32.2487 15.8316C32.1605 15.6891 32.0427 15.5672 31.9032 15.4743L31.7772 15.402L30.0622 14.5445ZM26.9997 2.66668C25.1239 2.66374 23.2912 3.22868 21.7427 4.28718C21.7473 4.32918 21.7497 4.37234 21.7497 4.41668V8.52334C21.7495 8.77324 21.8295 9.01661 21.978 9.21761C22.1265 9.41861 22.3356 9.56662 22.5745 9.63984L24.0807 10.0995L23.8765 8.87684C23.7298 7.9967 23.9247 7.09375 24.4215 6.35256C24.9183 5.61137 25.6795 5.08791 26.5493 4.88918L27.0172 4.78301C27.2367 4.73284 27.437 4.62022 27.5939 4.45875C27.7508 4.29728 27.8576 4.09385 27.9015 3.87301L28.1302 2.73434C27.755 2.68916 27.3775 2.66656 26.9997 2.66668Z" fill="white"/>
</g>
<defs>
<clipPath id="clip0_207_219">
<rect width="161.859" height="24" fill="white"/>
</clipPath>
</defs>
</svg>
