<svg width="162" height="24" viewBox="0 0 162 24" fill="none" xmlns="http://www.w3.org/2000/svg">
<g clip-path="url(#clip0_205_210)">
<path d="M41.9454 8.88566C42.0588 8.48581 41.9942 8.06397 41.7643 7.70295C41.1773 6.82781 40.3951 6.06087 39.4624 5.44615C38.5297 4.83143 37.465 4.38101 36.3292 4.12076C35.1935 3.8605 34.0091 3.79552 32.844 3.92955C31.679 4.06359 30.5562 4.39399 29.5401 4.9018L25.6465 6.83148L16.5916 3.17442C16.3341 3.05982 16.0484 3 15.7585 3C15.4686 3 15.1829 3.05982 14.9254 3.17442L9.49249 5.86664C9.22398 5.99973 8.99973 6.1898 8.84119 6.41868C8.68264 6.64756 8.59512 6.90758 8.58699 7.17384C8.57822 7.44208 8.65032 7.70771 8.79629 7.94494C8.94225 8.18217 9.15713 8.38293 9.42005 8.52773L15.3963 11.7646L12.2452 13.3208L3.58867 14.2234C3.24068 14.2604 2.91267 14.3834 2.64446 14.5775C2.37625 14.7716 2.17938 15.0284 2.07774 15.3168C1.97611 15.6051 1.97408 15.9127 2.07191 16.202C2.16974 16.4914 2.36321 16.7501 2.62884 16.9468L9.03974 21.7087C9.88374 22.4009 10.9646 22.8412 12.1225 22.9645C13.2803 23.0879 14.4536 22.8876 15.4687 22.3934L41.0399 9.83494C41.2578 9.73773 41.4505 9.60344 41.6061 9.44025C41.7618 9.27706 41.8772 9.08837 41.9454 8.88566ZM13.8207 19.779C13.4729 19.9435 13.0717 20.0052 12.6791 19.9546C12.2864 19.904 11.924 19.7439 11.6476 19.4989L8.20668 16.9623L13.1507 16.4488C13.3936 16.422 13.6277 16.3532 13.8389 16.2465L19.9238 13.243C20.1949 13.1086 20.4208 12.916 20.5795 12.6842C20.7382 12.4524 20.8242 12.1892 20.8293 11.9202C20.833 11.6531 20.7566 11.3897 20.6076 11.1553C20.4585 10.9209 20.2417 10.7235 19.9781 10.5819L14.0018 7.32946L15.9939 6.34906L25.0489 9.95943C25.3063 10.074 25.592 10.1339 25.8819 10.1339C26.1718 10.1339 26.4575 10.074 26.715 9.95943L31.3511 7.65626C32.3012 7.19874 33.3893 6.99714 34.4743 7.07762C35.5594 7.15809 36.5912 7.51692 37.436 8.10756L13.8207 19.779Z" fill="white"/>
<path d="M59.3721 6.5C60.0921 6.67318 60.6276 6.95801 60.9785 7.35449C61.334 7.75098 61.5117 8.28418 61.5117 8.9541C61.5117 9.40072 61.4639 9.77669 61.3682 10.082C61.2725 10.3828 61.1517 10.6335 61.0059 10.834C60.86 11.0299 60.7005 11.1826 60.5273 11.292C60.3587 11.3968 60.2015 11.4743 60.0557 11.5244C59.9098 11.5745 59.7845 11.6042 59.6797 11.6133C59.5794 11.6224 59.527 11.627 59.5225 11.627C59.7002 11.6361 59.8893 11.6566 60.0898 11.6885C60.2949 11.7204 60.4977 11.7705 60.6982 11.8389C60.8988 11.9072 61.0902 11.9961 61.2725 12.1055C61.4548 12.2148 61.6143 12.3516 61.751 12.5156C61.8923 12.6751 62.0039 12.8665 62.0859 13.0898C62.168 13.3132 62.209 13.5706 62.209 13.8623C62.209 14.3089 62.152 14.7236 62.0381 15.1064C61.9287 15.4893 61.7327 15.8219 61.4502 16.1045C61.1722 16.3825 60.7917 16.6012 60.3086 16.7607C59.8255 16.9202 59.2148 17 58.4766 17H50.54V14.0332L51.415 13.8623V9.38477L50.54 9.21387V6.5H59.3721ZM57.834 9.86328C57.834 9.63086 57.793 9.45312 57.7109 9.33008C57.6335 9.20247 57.5286 9.10905 57.3965 9.0498C57.2643 8.99056 57.1139 8.95638 56.9453 8.94727C56.7767 8.93815 56.6058 8.93359 56.4326 8.93359H55.79V10.8955H56.4326C56.6058 10.8955 56.7767 10.891 56.9453 10.8818C57.1139 10.8682 57.2643 10.8294 57.3965 10.7656C57.5286 10.7018 57.6335 10.6016 57.7109 10.4648C57.793 10.3236 57.834 10.123 57.834 9.86328ZM57.834 13.2744C57.834 13.042 57.793 12.8643 57.7109 12.7412C57.6335 12.6182 57.5286 12.527 57.3965 12.4678C57.2643 12.4085 57.1139 12.3743 56.9453 12.3652C56.7767 12.3561 56.6058 12.3516 56.4326 12.3516H55.79V14.3135H56.4326C56.6058 14.3135 56.7767 14.3089 56.9453 14.2998C57.1139 14.2861 57.2643 14.2474 57.3965 14.1836C57.5286 14.1198 57.6335 14.0173 57.7109 13.876C57.793 13.7347 57.834 13.5342 57.834 13.2744ZM73.8711 17H69.7832C69.6556 16.763 69.5234 16.5124 69.3867 16.248C69.25 15.9792 69.1178 15.6989 68.9902 15.4072C68.8626 15.1156 68.7419 14.8148 68.6279 14.5049C68.5186 14.195 68.4251 13.876 68.3477 13.5479H68.1221V17H63.1865V14.2725L64.0068 14.1152V10.2256L63.1865 10.0684V7.375H68.7852C69.528 7.375 70.1683 7.4069 70.7061 7.4707C71.2484 7.53451 71.7064 7.62793 72.0801 7.75098C72.4583 7.87402 72.7637 8.02441 72.9961 8.20215C73.2285 8.37533 73.4085 8.57357 73.5361 8.79688C73.6683 9.01562 73.7572 9.25716 73.8027 9.52148C73.8483 9.78581 73.8711 10.0661 73.8711 10.3623C73.8711 10.6631 73.8415 10.9365 73.7822 11.1826C73.7275 11.4287 73.6273 11.6543 73.4814 11.8594C73.3356 12.0645 73.1351 12.2536 72.8799 12.4268C72.6292 12.5954 72.3079 12.7549 71.916 12.9053C71.998 13.0693 72.1188 13.2653 72.2783 13.4932C72.4424 13.7165 72.6201 13.9466 72.8115 14.1836C73.0029 14.416 73.1921 14.6416 73.3789 14.8604C73.5703 15.0791 73.7344 15.266 73.8711 15.4209V17ZM68.1221 11.6953C68.3727 11.6953 68.5983 11.6839 68.7988 11.6611C69.0039 11.6338 69.1771 11.5791 69.3184 11.4971C69.4642 11.4105 69.5758 11.2852 69.6533 11.1211C69.7308 10.957 69.7695 10.736 69.7695 10.458C69.7695 10.1846 69.7308 9.96582 69.6533 9.80176C69.5758 9.6377 69.4642 9.51237 69.3184 9.42578C69.1771 9.33464 69.0039 9.27539 68.7988 9.24805C68.5983 9.2207 68.3727 9.20703 68.1221 9.20703V11.6953ZM81.7461 17L81.4043 15.3799H78.7178L78.376 17H74.7188V13.8281L75.5117 13.6709L77.4053 7.375H82.71L84.6172 13.6709L85.4033 13.8281V17H81.7461ZM79.1348 13.2197H80.9873L80.0576 9.43945L79.1348 13.2197ZM94.7344 13.9717C94.7344 14.3955 94.6729 14.7715 94.5498 15.0996C94.4313 15.4232 94.2673 15.7057 94.0576 15.9473C93.8525 16.1842 93.6064 16.3825 93.3193 16.542C93.0368 16.7015 92.7314 16.8314 92.4033 16.9316C92.0752 17.0273 91.7311 17.082 91.3711 17.0957C91.0156 17.1139 90.6602 17.123 90.3047 17.123C89.8125 17.123 89.3682 17.1117 88.9717 17.0889C88.5752 17.0661 88.2197 17.016 87.9053 16.9385C87.5954 16.861 87.3197 16.7767 87.0781 16.6855C86.8411 16.5898 86.6315 16.4964 86.4492 16.4053V14.0332H88.3838C88.5752 14.334 88.7939 14.555 89.04 14.6963C89.2861 14.8376 89.5391 14.9082 89.7988 14.9082C89.8763 14.9082 89.9629 14.9014 90.0586 14.8877C90.1543 14.874 90.2432 14.8307 90.3252 14.7578C90.4072 14.6849 90.4756 14.5732 90.5303 14.4229C90.5895 14.2679 90.6191 14.0514 90.6191 13.7734C90.25 13.7415 89.8831 13.696 89.5186 13.6367C89.1585 13.5729 88.8122 13.4886 88.4795 13.3838C88.1514 13.279 87.846 13.1468 87.5635 12.9873C87.2809 12.8232 87.0348 12.6273 86.8252 12.3994C86.6201 12.167 86.4583 11.8958 86.3398 11.5859C86.2214 11.2715 86.1621 10.9115 86.1621 10.5059C86.1621 10.041 86.2214 9.63542 86.3398 9.28906C86.4583 8.93815 86.6201 8.63737 86.8252 8.38672C87.0303 8.13607 87.2718 7.92871 87.5498 7.76465C87.8324 7.60059 88.1354 7.4707 88.459 7.375C88.7826 7.2793 89.1198 7.21322 89.4707 7.17676C89.8216 7.13574 90.1725 7.11523 90.5234 7.11523C91.0202 7.11523 91.4645 7.1403 91.8564 7.19043C92.2529 7.24056 92.6061 7.30436 92.916 7.38184C93.2305 7.45931 93.5062 7.5459 93.7432 7.6416C93.9847 7.73275 94.1989 7.82161 94.3857 7.9082V10.3008H92.3145C92.1413 9.97266 91.943 9.7334 91.7197 9.58301C91.4964 9.43262 91.2686 9.35742 91.0361 9.35742C90.9587 9.35742 90.8698 9.37109 90.7695 9.39844C90.6693 9.42122 90.5758 9.47591 90.4893 9.5625C90.4027 9.64909 90.3298 9.77669 90.2705 9.94531C90.2113 10.1139 90.1816 10.3418 90.1816 10.6289C90.9336 10.6562 91.5921 10.736 92.1572 10.8682C92.7269 11.0003 93.2031 11.1986 93.5859 11.4629C93.9688 11.7227 94.2559 12.0599 94.4473 12.4746C94.6387 12.8848 94.7344 13.3838 94.7344 13.9717ZM95.8486 7.375H101.604V10.0684L100.784 10.2256V14.1152L101.604 14.2725V17H95.8486V14.2725L96.6689 14.1152V10.2256L95.8486 10.0684V7.375ZM107.859 14.375C108.051 14.375 108.233 14.3499 108.406 14.2998C108.579 14.2451 108.739 14.1768 108.885 14.0947C109.035 14.0081 109.17 13.9147 109.288 13.8145C109.411 13.7096 109.518 13.6048 109.609 13.5H110.751V17H102.931V14.2725L103.751 14.1152V10.2256L102.931 10.0684V7.375H108.687V10.0684L107.859 10.2256V14.375ZM125.168 6.5V10H124.02C123.942 9.89974 123.853 9.7972 123.753 9.69238C123.653 9.58757 123.541 9.49414 123.418 9.41211C123.295 9.32552 123.16 9.25716 123.015 9.20703C122.869 9.15234 122.712 9.125 122.543 9.125V13.8623L123.418 14.0332V17H117.293V14.0332L118.168 13.8623V9.125C117.999 9.125 117.842 9.15234 117.696 9.20703C117.55 9.25716 117.416 9.32552 117.293 9.41211C117.17 9.49414 117.058 9.58757 116.958 9.69238C116.858 9.7972 116.769 9.89974 116.691 10H115.543V6.5H125.168ZM131.382 17.123C130.58 17.123 129.828 17.0387 129.126 16.8701C128.429 16.6969 127.82 16.403 127.301 15.9883C126.786 15.569 126.378 15.0358 126.077 14.3887C125.781 13.7415 125.633 12.9645 125.633 12.0576C125.633 11.1689 125.781 10.4124 126.077 9.78809C126.378 9.15918 126.788 8.64876 127.308 8.25684C127.827 7.86035 128.436 7.57096 129.133 7.38867C129.83 7.20638 130.58 7.11523 131.382 7.11523C132.179 7.11523 132.927 7.20638 133.624 7.38867C134.326 7.57096 134.937 7.86035 135.456 8.25684C135.98 8.64876 136.393 9.15918 136.693 9.78809C136.994 10.4124 137.145 11.1689 137.145 12.0576C137.145 12.6592 137.076 13.2061 136.939 13.6982C136.803 14.1859 136.609 14.6211 136.358 15.0039C136.112 15.3822 135.814 15.7103 135.463 15.9883C135.117 16.2617 134.729 16.4896 134.301 16.6719C133.872 16.8496 133.412 16.9681 132.92 17.0273C132.428 17.0911 131.915 17.123 131.382 17.123ZM131.382 10.0273C131.113 10.0273 130.885 10.0615 130.698 10.1299C130.516 10.1982 130.363 10.2871 130.24 10.3965C130.122 10.5059 130.028 10.6312 129.96 10.7725C129.892 10.9137 129.841 11.0596 129.81 11.21C129.782 11.3558 129.764 11.5016 129.755 11.6475C129.75 11.7887 129.748 11.9141 129.748 12.0234C129.748 12.1283 129.75 12.2536 129.755 12.3994C129.759 12.5407 129.775 12.6911 129.803 12.8506C129.83 13.0055 129.876 13.1605 129.939 13.3154C130.003 13.4704 130.094 13.6094 130.213 13.7324C130.336 13.8555 130.491 13.9557 130.678 14.0332C130.869 14.1061 131.104 14.1426 131.382 14.1426C131.655 14.1426 131.885 14.1061 132.072 14.0332C132.264 13.9603 132.419 13.8646 132.537 13.7461C132.66 13.623 132.756 13.4863 132.824 13.3359C132.893 13.1855 132.94 13.0352 132.968 12.8848C133 12.7298 133.018 12.5794 133.022 12.4336C133.032 12.2878 133.036 12.1624 133.036 12.0576C133.036 11.9482 133.032 11.8229 133.022 11.6816C133.018 11.5358 133 11.3877 132.968 11.2373C132.94 11.0869 132.893 10.9411 132.824 10.7998C132.756 10.654 132.66 10.5241 132.537 10.4102C132.419 10.2962 132.264 10.2051 132.072 10.1367C131.885 10.0638 131.655 10.0273 131.382 10.0273ZM148.725 10.2256C148.72 10.3623 148.718 10.4967 148.718 10.6289C148.718 10.7565 148.718 10.8796 148.718 10.998V12.0576C148.718 12.9691 148.592 13.7507 148.342 14.4023C148.091 15.0495 147.752 15.5804 147.323 15.9951C146.895 16.4098 146.391 16.7015 145.812 16.8701C145.238 17.0387 144.628 17.123 143.98 17.123C143.233 17.123 142.534 17.0387 141.882 16.8701C141.235 16.7015 140.67 16.4098 140.187 15.9951C139.708 15.5758 139.33 15.0426 139.052 14.3955C138.778 13.7484 138.642 12.9691 138.642 12.0576V10.2256L137.821 10.0684V7.375H143.16V10.0684L142.34 10.2256V11.0391C142.34 11.1484 142.34 11.2601 142.34 11.374C142.34 11.4834 142.34 11.5859 142.34 11.6816C142.344 11.7773 142.347 11.8617 142.347 11.9346C142.347 12.0029 142.347 12.0485 142.347 12.0713C142.347 12.1761 142.349 12.2992 142.354 12.4404C142.358 12.5771 142.376 12.7207 142.408 12.8711C142.44 13.0169 142.488 13.1628 142.552 13.3086C142.62 13.4499 142.714 13.5775 142.832 13.6914C142.955 13.8053 143.108 13.8988 143.29 13.9717C143.477 14.04 143.707 14.0742 143.98 14.0742C144.254 14.0742 144.484 14.04 144.671 13.9717C144.862 13.8988 145.017 13.8053 145.136 13.6914C145.259 13.5729 145.354 13.4408 145.423 13.2949C145.491 13.1491 145.539 13.0033 145.566 12.8574C145.598 12.707 145.617 12.5635 145.621 12.4268C145.63 12.2855 145.635 12.1624 145.635 12.0576C145.635 12.0257 145.635 11.9756 145.635 11.9072C145.635 11.8343 145.632 11.7523 145.628 11.6611C145.628 11.5654 145.628 11.4652 145.628 11.3604C145.628 11.251 145.628 11.1439 145.628 11.0391V10.2256L144.808 10.0684V7.375H149.552V10.0684L148.725 10.2256ZM161.303 17H157.215C157.087 16.763 156.955 16.5124 156.818 16.248C156.682 15.9792 156.549 15.6989 156.422 15.4072C156.294 15.1156 156.174 14.8148 156.06 14.5049C155.95 14.195 155.857 13.876 155.779 13.5479H155.554V17H150.618V14.2725L151.438 14.1152V10.2256L150.618 10.0684V7.375H156.217C156.96 7.375 157.6 7.4069 158.138 7.4707C158.68 7.53451 159.138 7.62793 159.512 7.75098C159.89 7.87402 160.195 8.02441 160.428 8.20215C160.66 8.37533 160.84 8.57357 160.968 8.79688C161.1 9.01562 161.189 9.25716 161.234 9.52148C161.28 9.78581 161.303 10.0661 161.303 10.3623C161.303 10.6631 161.273 10.9365 161.214 11.1826C161.159 11.4287 161.059 11.6543 160.913 11.8594C160.767 12.0645 160.567 12.2536 160.312 12.4268C160.061 12.5954 159.74 12.7549 159.348 12.9053C159.43 13.0693 159.55 13.2653 159.71 13.4932C159.874 13.7165 160.052 13.9466 160.243 14.1836C160.435 14.416 160.624 14.6416 160.811 14.8604C161.002 15.0791 161.166 15.266 161.303 15.4209V17ZM155.554 11.6953C155.804 11.6953 156.03 11.6839 156.23 11.6611C156.436 11.6338 156.609 11.5791 156.75 11.4971C156.896 11.4105 157.007 11.2852 157.085 11.1211C157.162 10.957 157.201 10.736 157.201 10.458C157.201 10.1846 157.162 9.96582 157.085 9.80176C157.007 9.6377 156.896 9.51237 156.75 9.42578C156.609 9.33464 156.436 9.27539 156.23 9.24805C156.03 9.2207 155.804 9.20703 155.554 9.20703V11.6953Z" fill="white"/>
</g>
<defs>
<clipPath id="clip0_205_210">
<rect width="161.859" height="24" fill="white"/>
</clipPath>
</defs>
</svg>
